HIERARCHY
ROOT hip
{
  OFFSET 0 0 0
  CHANNELS 6 Xposition Yposition Zposition Zrotation Yrotation Xrotation
  JOINT abdomen
  {
    OFFSET 0 20.6881 -0.73152
    CHANNELS 3 Zrotation Xrotation Yrotation
    JOINT chest
    {
      OFFSET 0 11.7043 -0.48768
      CHANNELS 3 Zrotation Xrotation Yrotation
      JOINT neck
      {
        OFFSET 0 22.1894 -2.19456
        CHANNELS 3 Zrotation Xrotation Yrotation
        JOINT head
        {
          OFFSET -0.24384 7.07133 1.2192
          CHANNELS 3 Zrotation Xrotation Yrotation
          JOINT leftEye
          {
            OFFSET 4.14528 8.04674 8.04672
            CHANNELS 3 Zrotation Xrotation Yrotation
            End Site
            {
              OFFSET 1 0 0
            }
          }
          JOINT rightEye
          {
            OFFSET -3.6576 8.04674 8.04672
            CHANNELS 3 Zrotation Xrotation Yrotation
            End Site
            {
              OFFSET 1 0 0
            }
          }
        }
      }
      JOINT rCollar
      {
        OFFSET -2.68224 19.2634 -4.8768
        CHANNELS 3 Zrotation Xrotation Yrotation
        JOINT rShldr
        {
          OFFSET -8.77824 -1.95073 1.46304
          CHANNELS 3 Zrotation Xrotation Yrotation
          JOINT rForeArm
          {
            OFFSET -28.1742 -1.7115 0.48768
            CHANNELS 3 Zrotation Xrotation Yrotation
            JOINT rHand
            {
              OFFSET -22.5879 0.773209 7.07136
              CHANNELS 3 Zrotation Xrotation Yrotation
              JOINT rThumb1
              {
                OFFSET -1.2192 -0.487915 3.41376
                CHANNELS 3 Zrotation Xrotation Yrotation
                JOINT rThumb2
                {
                  OFFSET -3.37035 -0.52449 3.41376
                  CHANNELS 3 Zrotation Xrotation Yrotation
                  End Site
                  {
                    OFFSET -1.78271 -1.18214 1.43049
                  }
                }
              }
              JOINT rIndex1
              {
                OFFSET -7.75947 0.938293 5.60832
                CHANNELS 3 Zrotation Xrotation Yrotation
                JOINT rIndex2
                {
                  OFFSET -2.54057 -0.884171 1.56538
                  CHANNELS 3 Zrotation Xrotation Yrotation
                  End Site
                  {
                    OFFSET -1.62519 -0.234802 1.16502
                  }
                }
              }
              JOINT rMid1
              {
                OFFSET -8.24714 1.18213 3.41376
                CHANNELS 3 Zrotation Xrotation Yrotation
                JOINT rMid2
                {
                  OFFSET -3.10165 -0.590103 1.0647
                  CHANNELS 3 Zrotation Xrotation Yrotation
                  End Site
                  {
                    OFFSET -2.48547 -0.328903 0.83742
                  }
                }
              }
              JOINT rRing1
              {
                OFFSET -8.82822 0.546677 1.51678
                CHANNELS 3 Zrotation Xrotation Yrotation
                JOINT rRing2
                {
                  OFFSET -2.60934 -0.819778 -0.0198488
                  CHANNELS 3 Zrotation Xrotation Yrotation
                  End Site
                  {
                    OFFSET -2.33842 -0.294052 0.168128
                  }
                }
              }
              JOINT rPinky1
              {
                OFFSET -8.27202 -0.0477905 -0.4584
                CHANNELS 3 Zrotation Xrotation Yrotation
                JOINT rPinky2
                {
                  OFFSET -1.82734 -0.647385 -0.700984
                  CHANNELS 3 Zrotation Xrotation Yrotation
                  End Site
                  {
                    OFFSET -1.69225 -0.51767 -0.607171
                  }
                }
              }
            }
          }
        }
      }
      JOINT lCollar
      {
        OFFSET 2.68224 19.2634 -4.8768
        CHANNELS 3 Zrotation Xrotation Yrotation
        JOINT lShldr
        {
          OFFSET 8.77824 -1.95073 1.46304
          CHANNELS 3 Zrotation Xrotation Yrotation
          JOINT lForeArm
          {
            OFFSET 28.1742 -1.7115 0.48768
            CHANNELS 3 Zrotation Xrotation Yrotation
            JOINT lHand
            {
              OFFSET 22.5879 0.773209 7.07136
              CHANNELS 3 Zrotation Xrotation Yrotation
              JOINT lThumb1
              {
                OFFSET 1.2192 -0.487915 3.41376
                CHANNELS 3 Zrotation Xrotation Yrotation
                JOINT lThumb2
                {
                  OFFSET 3.37035 -0.52449 3.41376
                  CHANNELS 3 Zrotation Xrotation Yrotation
                  End Site
                  {
                    OFFSET 1.78271 -1.18214 1.43049
                  }
                }
              }
              JOINT lIndex1
              {
                OFFSET 7.75947 0.938293 5.60832
                CHANNELS 3 Zrotation Xrotation Yrotation
                JOINT lIndex2
                {
                  OFFSET 2.54057 -0.884171 1.56538
                  CHANNELS 3 Zrotation Xrotation Yrotation
                  End Site
                  {
                    OFFSET 1.62519 -0.234802 1.16502
                  }
                }
              }
              JOINT lMid1
              {
                OFFSET 8.24714 1.18213 3.41376
                CHANNELS 3 Zrotation Xrotation Yrotation
                JOINT lMid2
                {
                  OFFSET 3.10165 -0.590103 1.0647
                  CHANNELS 3 Zrotation Xrotation Yrotation
                  End Site
                  {
                    OFFSET 2.48547 -0.328903 0.83742
                  }
                }
              }
              JOINT lRing1
              {
                OFFSET 8.82822 0.546677 1.51678
                CHANNELS 3 Zrotation Xrotation Yrotation
                JOINT lRing2
                {
                  OFFSET 2.60934 -0.819778 -0.0198488
                  CHANNELS 3 Zrotation Xrotation Yrotation
                  End Site
                  {
                    OFFSET 2.33842 -0.294052 0.168128
                  }
                }
              }
              JOINT lPinky1
              {
                OFFSET 8.27202 -0.0477905 -0.4584
                CHANNELS 3 Zrotation Xrotation Yrotation
                JOINT lPinky2
                {
                  OFFSET 1.82734 -0.647385 -0.700984
                  CHANNELS 3 Zrotation Xrotation Yrotation
                  End Site
                  {
                    OFFSET 1.69225 -0.51767 -0.607171
                  }
                }
              }
            }
          }
        }
      }
    }
  }
  JOINT rButtock
  {
    OFFSET -8.77824 4.35084 1.2192
    CHANNELS 3 Zrotation Xrotation Yrotation
    JOINT rThigh
    {
      OFFSET 0 -1.70687 -2.19456
      CHANNELS 3 Zrotation Xrotation Yrotation
      JOINT rShin
      {
        OFFSET 0 -36.8199 0.73152
        CHANNELS 3 Zrotation Xrotation Yrotation
        JOINT rFoot
        {
          OFFSET 0.73152 -45.1104 -5.12064
          CHANNELS 3 Zrotation Xrotation Yrotation
          End Site
          {
            OFFSET -1.1221 -3.69964 12.103
          }
        }
      }
    }
  }
  JOINT lButtock
  {
    OFFSET 8.77824 4.35084 1.2192
    CHANNELS 3 Zrotation Xrotation Yrotation
    JOINT lThigh
    {
      OFFSET 0 -1.70687 -2.19456
      CHANNELS 3 Zrotation Xrotation Yrotation
      JOINT lShin
      {
        OFFSET 0 -36.8199 0.73152
        CHANNELS 3 Zrotation Xrotation Yrotation
        JOINT lFoot
        {
          OFFSET -0.73152 -45.1104 -5.12064
          CHANNELS 3 Zrotation Xrotation Yrotation
          End Site
          {
            OFFSET 1.1221 -3.69964 12.103
          }
        }
      }
    }
  }
}
MOTION
Frames:	6
Frame Time:	0.00833333
48.6299 84.7804 -177.517 0.0 0.0 0.0 0.262211 -0.00240322 0.00752836 0.0724435 -0.00388231 0.0125516 -5.80032e-15 0.0 9.31807e-18 -1.73874e-14 9.54166e-15 1.70831e-17 -0.0 0.0 0.0 -0.0 0.0 0.0 -2.83411e-15 -1.55301e-18 1.98785e-16 -6.04713e-14 -3.47873e-16 5.96354e-16 -1.05127e-12 3.11893e-13 -3.18055e-15 -1.20451e-11 -3.25783e-13 -6.36111e-15 -2.84127e-11 -2.72898e-14 9.54166e-15 -4.90787e-11 -4.77083e-14 1.19271e-14 -2.84079e-11 -2.74323e-14 0.0 7.73091 5.47488 0.417314 -2.84147e-11 -2.77305e-14 9.54166e-15 2.90554 0.965183 0.102902 -2.84122e-11 -2.77305e-14 9.54166e-15 10.2786 0.731801 0.0259123 -2.8424e-11 -2.34566e-14 1.90833e-14 2.22167 -0.733487 -0.20892 -3.03023e-15 -1.94126e-18 -1.98785e-16 -6.28083e-14 -1.49089e-16 -1.19271e-15 -1.05097e-12 -3.17062e-13 3.18055e-15 -1.20457e-11 3.04563e-13 6.36111e-15 -2.84083e-11 -2.81634e-14 9.54166e-15 -4.90541e-11 -4.45278e-14 2.22639e-14 -2.84131e-11 -3.06128e-14 1.90833e-14 -7.73091 5.47488 -0.417314 -2.84073e-11 -2.90226e-14 6.36111e-15 -2.90554 0.965183 -0.102902 -2.84085e-11 -2.89232e-14 8.74653e-15 -10.2786 0.731801 -0.0259123 -2.84016e-11 -2.5842e-14 0.0 -2.22167 -0.733487 0.20892 -2.03217e-16 0.0 -3.88251e-19 0.660438 -3.79299 -0.0559805 -0.00363592 1.31888 -0.0297734 -0.463016 2.47431 0.102444 2.03217e-16 0.0 3.88251e-19 -0.260035 -2.74928 0.0308224 0.00660618 -0.571628 0.0578559 0.458252 3.32107 -0.11879
49.3792 83.1004 -177.654 1.8223 4.3663 5.4211 0.447009 -1.61364 -1.68025 1.0613 0.979752 -0.483547 -2.77799 -2.01897 -0.80542 5.30136 -0.6897 -0.347353 -0.0 0.0 0.0 -0.0 0.0 0.0 -1.01231e-14 1.89319e-14 2.46027e-14 21.2527 9.14469 -1.8321 -3.56342 -1.50685 5.68232 0.00453832 -1.55269 -0.217972 1.39272e-10 1.29756e-10 -1.88186e-11 2.4029e-10 2.25192e-10 -3.17736e-11 1.39282e-10 1.29753e-10 -1.88271e-11 7.73091 5.47488 0.417314 1.39273e-10 1.29754e-10 -1.88187e-11 2.90554 0.965183 0.102902 1.39279e-10 1.29753e-10 -1.8819e-11 10.2786 0.731801 0.0259123 1.39263e-10 1.29758e-10 -1.88115e-11 2.22167 -0.733487 -0.20892 -1.0305e-14 1.89276e-14 2.42312e-14 -21.525 13.0138 -2.0993 4.4608 -2.07571 -6.91541 -0.00851111 -2.11324 0.296329 1.42693e-10 1.72027e-10 9.57243e-12 2.47866e-10 2.98444e-10 1.64737e-11 1.42685e-10 1.72023e-10 9.58661e-12 -7.73091 5.47488 -0.417314 1.42693e-10 1.72025e-10 9.57208e-12 -2.90554 0.965183 -0.102902 1.42691e-10 1.72025e-10 9.57256e-12 -10.2786 0.731801 -0.0259123 1.42698e-10 1.72028e-10 9.56375e-12 -2.22167 -0.733487 0.20892 -2.03217e-16 0.0 -3.88251e-19 1.54255 -12.0648 0.145537 -0.0383483 10.1737 0.0381385 -0.4326 0.339062 -0.382932 2.03217e-16 0.0 3.88251e-19 1.06507 -2.60356 3.6437 0.0325537 9.39388 -0.0411514 0.532266 5.76824 0.403398
49.1271 83.0378 -176.821 1.643 4.3627 5.5246 0.481437 -3.32385 -3.47907 2.10852 2.03677 -1.01234 -5.76826 -4.16562 -1.66116 10.8932 -1.40999 -0.719116 -0.0 0.0 0.0 -0.0 0.0 0.0 -1.95255e-14 3.96855e-14 4.86525e-14 44.4133 18.7184 -3.92992 -6.98768 -3.03752 11.6716 -0.00368687 -3.14534 -0.442124 3.30976e-10 2.69658e-10 -4.77524e-11 5.71162e-10 4.67986e-10 -8.09213e-11 3.30991e-10 2.69653e-10 -4.77598e-11 7.73091 5.47488 0.417314 3.30981e-10 2.69654e-10 -4.77528e-11 2.90554 0.965183 0.102902 3.30989e-10 2.69652e-10 -4.77532e-11 10.2786 0.731801 0.0259123 3.30968e-10 2.69659e-10 -4.77479e-11 2.22167 -0.733487 -0.20892 -1.96922e-14 3.96772e-14 4.83078e-14 -43.0746 26.7375 -4.77133 8.66622 -4.19058 -14.3037 0.00684722 -4.40777 0.619505 3.37219e-10 3.68169e-10 2.31103e-11 5.85374e-10 6.38668e-10 3.97912e-11 3.37209e-10 3.68165e-10 2.31296e-11 -7.73091 5.47488 -0.417314 3.37218e-10 3.68166e-10 2.31131e-11 -2.90554 0.965183 -0.102902 3.37215e-10 3.68167e-10 2.31115e-11 -10.2786 0.731801 -0.0259123 3.37222e-10 3.6817e-10 2.31026e-11 -2.22167 -0.733487 0.20892 -2.03217e-16 0.0 -3.88251e-19 2.47978 -20.8497 0.375433 -0.0983988 19.5486 0.118981 -0.441023 -1.89841 -0.904061 2.03217e-16 0.0 3.88251e-19 2.3729 -2.32586 7.45722 0.0959592 19.7498 -0.153007 0.562081 8.29987 0.897557
48.8053 83.0268 -175.993 1.1332 4.3885 5.4874 0.531382 -4.81933 -5.07178 3.09016 2.94615 -1.47749 -8.50501 -6.0521 -2.4283 15.879 -2.0688 -1.04266 -0.0 0.0 0.0 -0.0 0.0 0.0 -2.47011e-14 5.67987e-14 7.34105e-14 65.6963 27.3146 -6.10983 -9.80613 -4.34301 17.0916 -0.0219258 -4.65779 -0.655843 4.74643e-10 3.89322e-10 -5.64749e-11 8.19029e-10 6.75672e-10 -9.53447e-11 4.74661e-10 3.89315e-10 -5.64814e-11 7.73091 5.47488 0.417314 4.7465e-10 3.89317e-10 -5.64753e-11 2.90554 0.965183 0.102902 4.7466e-10 3.89314e-10 -5.6476e-11 10.2786 0.731801 0.0259123 4.74636e-10 3.89322e-10 -5.64727e-11 2.22167 -0.733487 -0.20892 -2.48545e-14 5.67868e-14 7.3091e-14 -61.0351 38.8006 -7.88333 11.9091 -5.86503 -20.8467 0.0403844 -6.33904 0.893848 4.84895e-10 5.16137e-10 2.86982e-11 8.41705e-10 8.9542e-10 4.93766e-11 4.84882e-10 5.16131e-10 2.87217e-11 -7.73091 5.47488 -0.417314 4.84894e-10 5.16132e-10 2.87035e-11 -2.90554 0.965183 -0.102902 4.84889e-10 5.16133e-10 2.87002e-11 -10.2786 0.731801 -0.0259123 4.84896e-10 5.16137e-10 2.86913e-11 -2.22167 -0.733487 0.20892 -2.03217e-16 0.0 -3.88251e-19 3.5019 -28.6071 0.61359 -0.177276 27.8832 0.194759 -0.480418 -3.93031 -1.35666 2.03217e-16 0.0 3.88251e-19 3.65979 -2.28622 10.867 0.198869 29.3246 -0.272412 0.544359 10.6596 1.46656
48.5307 82.9849 -175.147 0.5729 4.5801 5.3301 0.827515 -5.7947 -6.13329 3.86964 3.48734 -1.7817 -10.4847 -7.29285 -2.96208 19.3672 -2.5742 -1.24511 -0.0 0.0 0.0 -0.0 0.0 0.0 -1.931e-14 6.48108e-14 9.9939e-14 80.8925 33.5769 -7.94203 -11.709 -5.24663 21.0479 -0.0439114 -5.96991 -0.842096 4.98214e-10 4.58391e-10 -1.46687e-11 8.59385e-10 7.95587e-10 -2.29572e-11 4.98234e-10 4.58384e-10 -1.46751e-11 7.73091 5.47488 0.417314 4.98222e-10 4.58386e-10 -1.46687e-11 2.90554 0.965183 0.102902 4.98234e-10 4.58382e-10 -1.46703e-11 10.2786 0.731801 0.0259123 4.98209e-10 4.58391e-10 -1.46687e-11 2.22167 -0.733487 -0.20892 -1.94543e-14 6.4796e-14 9.96408e-14 -72.8787 46.9652 -10.5305 13.8114 -6.80327 -25.1754 0.0669553 -7.36293 1.04058 5.15447e-10 5.43665e-10 1.44111e-11 8.95092e-10 9.43493e-10 2.46318e-11 5.15434e-10 5.43659e-10 1.44365e-11 -7.73091 5.47488 -0.417314 5.15445e-10 5.4366e-10 1.44175e-11 -2.90554 0.965183 -0.102902 5.1544e-10 5.43661e-10 1.44135e-11 -10.2786 0.731801 -0.0259123 5.15448e-10 5.43665e-10 1.44047e-11 -2.22167 -0.733487 0.20892 -2.03217e-16 0.0 -3.88251e-19 4.59156 -33.797 0.812016 -0.245532 33.617 0.235093 -0.519301 -5.44957 -1.63394 2.03217e-16 0.0 3.88251e-19 5.00257 -2.8457 13.2723 0.323915 36.9473 -0.383177 0.470015 12.5901 2.21332
48.1932 82.9282 -174.318 -0.2685 4.672 5.1686 1.63319 -6.04456 -6.44114 4.37454 3.47814 -1.85834 -11.3492 -7.61262 -3.15181 20.7542 -2.85969 -1.26443 -0.0 0.0 0.0 -0.0 0.0 0.0 2.05317e-15 5.57487e-14 1.36696e-13 86.7872 36.6883 -8.87293 -12.5872 -5.69981 22.9346 -0.0631685 -7.03431 -0.993741 3.30425e-10 4.47622e-10 1.57262e-10 5.68729e-10 7.77348e-10 2.73611e-10 3.30443e-10 4.47617e-10 1.57254e-10 7.73091 5.47488 0.417314 3.30432e-10 4.47617e-10 1.57263e-10 2.90554 0.965183 0.102902 3.30444e-10 4.47614e-10 1.57259e-10 10.2786 0.731801 0.0259123 3.30422e-10 4.47622e-10 1.57259e-10 2.22167 -0.733487 -0.20892 1.908e-15 5.57317e-14 1.36416e-13 -78.3193 49.9229 -10.872 14.2545 -6.9414 -26.3216 0.0652822 -7.14085 1.00894 3.77438e-10 3.77444e-10 -4.96491e-11 6.5631e-10 6.55795e-10 -8.62688e-11 3.77427e-10 3.77439e-10 -4.96249e-11 -7.73091 5.47488 -0.417314 3.77437e-10 3.77441e-10 -4.96437e-11 -2.90554 0.965183 -0.102902 3.77431e-10 3.77441e-10 -4.96469e-11 -10.2786 0.731801 -0.0259123 3.7744e-10 3.77446e-10 -4.96552e-11 -2.22167 -0.733487 0.20892 -2.03217e-16 0.0 -3.88251e-19 5.77965 -35.393 0.936447 -0.268047 35.7114 0.201402 -0.523297 -6.2476 -1.67869 2.03217e-16 0.0 3.88251e-19 6.55877 -4.27037 14.2842 0.439129 41.9189 -0.453435 0.3238 14.1233 3.15455
